<svg xmlns="http://www.w3.org/2000/svg" class="rustmaps-logo" data-name="Layer 1" style="height:100%;width:400px;max-width:65vw" viewBox="0 0 382 75">
  <path d="M87.73 14.05a23.43 23.43 0 0 1 6.51.92 17.91 17.91 0 0 1 5.76 2.81 14.33 14.33 0 0 1 4.09 4.78 14.14 14.14 0 0 1 1.53 6.74 12 12 0 0 1-2.78 8.11 14 14 0 0 1-7.1 4.38l12.11 16.1H92.9l-11.71-17.4v17.4H69V14.05ZM81.19 25.5v8.18a19.27 19.27 0 0 0 2.39.66 13.77 13.77 0 0 0 2.71.26 9.24 9.24 0 0 0 4.81-1.15A3.79 3.79 0 0 0 93 30c0-1.79-.64-3-1.93-3.56a11.54 11.54 0 0 0-4.81-.89ZM145 24.52v20a14 14 0 0 1-2.06 7.72 13.28 13.28 0 0 1-5.66 4.91 20.84 20.84 0 0 1-16.49 0 13.34 13.34 0 0 1-5.66-4.91 14 14 0 0 1-2.06-7.72v-20h11.26l.06 17a9 9 0 0 0 1.08 5 4.83 4.83 0 0 0 7.13 0 9 9 0 0 0 1.08-5l.07-17ZM165.46 23.54a18.67 18.67 0 0 1 6 .95 11.78 11.78 0 0 1 4.54 2.58v8.84a30.75 30.75 0 0 0-3.86-2 11.39 11.39 0 0 0-4.64-.95 6 6 0 0 0-2.78.62 2 2 0 0 0-1.21 1.93 1.54 1.54 0 0 0 .72 1.38 11 11 0 0 0 2.81 1l2 .52q8.7 2.23 8.7 9.36a9.24 9.24 0 0 1-1.93 5.79 12.89 12.89 0 0 1-5 3.92 16 16 0 0 1-6.7 1.41 21.62 21.62 0 0 1-6.94-1.08 21.91 21.91 0 0 1-5.49-2.65v-8.79A25.63 25.63 0 0 0 157 48.8a17.34 17.34 0 0 0 5.33 1 6.44 6.44 0 0 0 2.78-.46 1.68 1.68 0 0 0 .88-1.64 1.52 1.52 0 0 0-1-1.4 29.52 29.52 0 0 0-3-1.15l-3.34-1.05a9.73 9.73 0 0 1-5.36-3.5 9.78 9.78 0 0 1-1.71-5.85 9.73 9.73 0 0 1 1.84-6 12 12 0 0 1 5-3.86 17.8 17.8 0 0 1 7.04-1.35ZM198.57 14.71v9.81h8.77v8.83h-8.77v9.36a6.49 6.49 0 0 0 1 3.83 3.31 3.31 0 0 0 2.85 1.4 10.18 10.18 0 0 0 5.3-1.43v8.76a8.52 8.52 0 0 1-3.31 2.52 12.69 12.69 0 0 1-5.52 1.08 11.72 11.72 0 0 1-5.76-1.44 11 11 0 0 1-4.22-4.12 12.41 12.41 0 0 1-1.61-6.48V33.35h-5.62v-6.87a15.28 15.28 0 0 0 6.32-3.69 16.66 16.66 0 0 0 4.55-8.08ZM262.62 13.4v44.49h-12.23V36.3l-9 10.14h-3.66l-9-10.14v21.59h-12.17V13.4h4.32l18.71 19 18.72-19ZM285.85 23.54a12.34 12.34 0 0 1 5.15 1.14 12.83 12.83 0 0 1 4.15 2.92v-3.08h11.25v33.37h-11.26v-5.56a11.76 11.76 0 0 1-3.79 4.67 10 10 0 0 1-6.15 1.9 13.66 13.66 0 0 1-7-1.9 13.94 13.94 0 0 1-5.34-5.85 21.56 21.56 0 0 1-2.06-10 20.36 20.36 0 0 1 2.06-9.55 14.82 14.82 0 0 1 5.5-6 14.34 14.34 0 0 1 7.49-2.06Zm2.36 11a5 5 0 0 0-4 2 7.12 7.12 0 0 0-1.6 4.65 6.48 6.48 0 0 0 1.64 4.51 5.47 5.47 0 0 0 4.31 1.84 6.5 6.5 0 0 0 3-.76 6.92 6.92 0 0 0 2.58-2.29 6.7 6.7 0 0 0 1.08-3.95v-3.26a13.52 13.52 0 0 0-3.24-2 9 9 0 0 0-3.77-.75ZM336.76 23.54a13.85 13.85 0 0 1 7 1.9 13.7 13.7 0 0 1 5.33 5.82 21.76 21.76 0 0 1 2 10 20.36 20.36 0 0 1-2.06 9.55 14.82 14.82 0 0 1-5.5 6 14.31 14.31 0 0 1-7.49 2.06 12.38 12.38 0 0 1-5.04-1.14 13 13 0 0 1-4.15-2.91v18.77h-11.29V24.52h11.25v5.56a11.7 11.7 0 0 1 3.8-4.64 10 10 0 0 1 6.15-1.9Zm-3.34 11.38a6.64 6.64 0 0 0-2.91.76 6.8 6.8 0 0 0-2.62 2.32 6.72 6.72 0 0 0-1.08 4v3.2a14.6 14.6 0 0 0 3.31 2 8.84 8.84 0 0 0 3.63.79 4.92 4.92 0 0 0 4.05-2 7.21 7.21 0 0 0 1.57-4.61 6.51 6.51 0 0 0-1.63-4.51 5.52 5.52 0 0 0-4.32-1.95ZM369.67 23.54a18.72 18.72 0 0 1 6.05.95 11.86 11.86 0 0 1 4.48 2.58v8.84a30.75 30.75 0 0 0-3.86-2 11.46 11.46 0 0 0-4.64-.91 6.1 6.1 0 0 0-2.79.62 2.06 2.06 0 0 0-1.21 1.93 1.54 1.54 0 0 0 .72 1.38 11.14 11.14 0 0 0 2.82 1l2 .52q8.7 2.23 8.7 9.36a9.3 9.3 0 0 1-1.94 5.73 12.89 12.89 0 0 1-5 3.92 16 16 0 0 1-6.71 1.41 21.56 21.56 0 0 1-6.93-1.08 22.16 22.16 0 0 1-5.5-2.65v-8.77a25.87 25.87 0 0 0 5.33 2.43 17.45 17.45 0 0 0 5.34 1 6.44 6.44 0 0 0 2.78-.46 1.68 1.68 0 0 0 .88-1.64 1.52 1.52 0 0 0-1.05-1.4 28.62 28.62 0 0 0-3-1.15l-3.33-1.05a9.76 9.76 0 0 1-5.37-3.5 9.84 9.84 0 0 1-1.7-5.85 9.79 9.79 0 0 1 1.83-6 12 12 0 0 1 5-3.86 17.77 17.77 0 0 1 7.1-1.35ZM27.6 11a15.24 15.24 0 0 0-7.09 1.75 13.87 13.87 0 0 0-2.33 1.55 13.11 13.11 0 0 0-2 2 16.62 16.62 0 0 0-1.56 2.33A13.8 13.8 0 0 0 13 23.41h29.17A14.82 14.82 0 0 0 27.6 11Z" fill="#CD412A" class="cls-1"/>
  <path d="M54.7 26.62a27.1 27.1 0 0 0-54.2 0 26.67 26.67 0 0 0 .29 3.88v.1s0 .29.1.39c.1.29.1.68.19 1v.1C4.19 48 18.37 66.15 24.59 73.53A3.78 3.78 0 0 0 30 74c.19-.2.39-.29.48-.49C36.83 66.15 50.91 48 54 32.06V32a3 3 0 0 1 .19-1l.1-.39v-.1a25.51 25.51 0 0 0 .41-3.89ZM22 46.24V40.7a15.43 15.43 0 0 1-2.24-1.07v5.83A23.22 23.22 0 0 1 15 42.74v-9.23c.39.59.78 1.17 1.17 1.65a14.76 14.76 0 0 0 3.5 3.11 3.83 3.83 0 0 0 .87.49 10.09 10.09 0 0 0 1.46.68 14.4 14.4 0 0 0 4.46 1.07v6.41a17.67 17.67 0 0 1-4.46-.68Zm4.46-18.17H15v-1.16h11.43Zm2.34 18.85v-20h11.43V28h-10.4v12.31a17.88 17.88 0 0 0 3.31-.87 14.89 14.89 0 0 0 7-5.93v9.13a22.51 22.51 0 0 1-4.66 2.72v-5.82c-.78.38-1.46.77-2.24 1.06v5.54a14.25 14.25 0 0 1-4.47.78Zm13.66-6.32V26.91h1.07a1.19 1.19 0 0 0 1.17-1.17 1.12 1.12 0 0 0-1.17-1.16h-32a1.17 1.17 0 0 0-1.16 1.16 1.12 1.12 0 0 0 1.16 1.17h1.07V40.6a20.61 20.61 0 1 1 29.82 0Z" fill="#CD412A" class="cls-1"/>
</svg>
